<?xml version="1.0" encoding="UTF-8"?>
<!DOCTYPE svg PUBLIC "-//W3C//DTD SVG 1.1//EN" "http://www.w3.org/Graphics/SVG/1.1/DTD/svg11.dtd">
<svg version="1.1" xmlns="http://www.w3.org/2000/svg" xmlns:xlink="http://www.w3.org/1999/xlink" x="0px" y="0px" width="128" height="128" viewBox="0, 0, 128, 128">
  <g id="Background">
    <rect x="0" y="0" width="128" height="128" fill="#000000" fill-opacity="0"/>
  </g>
  <g id="Background">
    <path d="M18.093,6 L109.907,6 C116.561,6 122,11.439 122,18.093 L122,109.907 C122,116.561 116.561,122 109.907,122 L18.093,122 C11.439,122 6,116.561 6,109.907 L6,18.093 C6,11.439 11.439,6 18.093,6" fill="#727272"/>
    <path d="M96.575,77.358 L105.663,77.358 C107.888,77.358 109.688,75.558 109.688,73.34 C109.688,71.124 107.888,69.325 105.663,69.325 L96.52,69.325 C94.334,69.325 92.201,67.814 91.858,65.26 C91.502,62.639 92.945,60.826 94.767,60.104 L103.258,56.761 C105.322,55.94 106.33,53.615 105.523,51.551 C104.71,49.495 102.375,48.482 100.311,49.294 L91.579,52.738 C90.334,53.227 88.789,52.87 88.059,51.185 C87.2,49.208 86.237,47.349 85.168,45.674 C77.367,49.184 70.681,50.939 64.005,50.939 C57.314,50.939 50.637,49.184 42.828,45.674 C41.781,47.317 40.837,49.117 40.006,51.048 C39.137,53.025 37.539,53.181 36.416,52.738 L27.684,49.294 C25.615,48.482 23.295,49.495 22.474,51.551 C21.66,53.615 22.673,55.94 24.739,56.761 L33.237,60.104 C35.114,60.849 36.484,62.795 36.173,65.036 C35.772,67.968 33.571,69.325 31.475,69.325 L22.327,69.325 C20.107,69.325 18.317,71.124 18.317,73.34 C18.317,75.558 20.107,77.35 22.327,77.35 L31.415,77.358 C33.594,77.358 35.827,78.792 36.228,81.437 C36.663,84.258 35.361,86.191 33.374,87.09 L24.162,91.26 C22.14,92.169 21.24,94.548 22.148,96.567 C23.071,98.591 25.451,99.48 27.46,98.566 L37.215,94.16 C38.383,93.635 39.827,93.749 40.641,95.169 C44.614,102.111 52.614,109.121 64.005,110.413 C75.157,109.143 83.068,102.38 87.123,95.567 C88.114,93.904 89.51,93.58 90.79,94.16 L100.535,98.566 C102.544,99.48 104.934,98.591 105.842,96.567 C106.756,94.548 105.855,92.169 103.846,91.26 L94.621,87.09 C92.744,86.237 91.324,84.236 91.721,81.746 C92.211,78.637 94.456,77.358 96.575,77.358 z M45.248,23.039 C45.248,20.03 47.683,17.595 50.692,17.595 C54.282,17.595 56.881,21.008 55.948,24.463 C55.592,25.76 55.78,27.154 56.47,28.309 C58.003,30.871 60.602,32.461 64.005,32.474 C67.348,32.461 69.979,30.895 71.526,28.309 C72.212,27.154 72.404,25.76 72.048,24.463 C71.115,21.008 73.713,17.595 77.303,17.595 C80.313,17.595 82.747,20.03 82.747,23.039 C82.747,25.651 80.912,27.806 78.49,28.351 C77.268,28.63 76.212,29.397 75.568,30.474 C73.093,34.639 76.691,38.298 79.6,42.005 C70.691,46.673 57.304,46.673 48.395,42.005 C51.35,38.238 54.917,34.662 52.427,30.474 C51.783,29.397 50.724,28.63 49.505,28.351 C47.083,27.806 45.248,25.651 45.248,23.039" fill="#84D0F4"/>
    <path d="M73.22,76.966 C74.194,77.377 75.02,77.915 75.695,78.568 C76.372,79.231 76.911,79.921 77.303,80.656 C77.696,81.385 77.975,82.135 78.144,82.906 C78.313,83.678 78.403,84.4 78.403,85.077 C78.403,86.876 78.094,88.539 77.472,90.063 C76.852,91.579 75.938,92.886 74.736,93.973 C73.536,95.064 72.038,95.905 70.233,96.507 C68.434,97.11 66.347,97.406 63.982,97.406 C62.442,97.406 60.926,97.247 59.424,96.928 C57.921,96.607 56.52,96.047 55.228,95.243 C53.931,94.434 52.801,93.351 51.847,92.004 C50.889,90.653 50.227,88.94 49.846,86.876 L60.438,85.415 C60.657,86.725 61.063,87.588 61.648,88.009 C62.228,88.42 62.895,88.621 63.644,88.621 C64.508,88.621 65.255,88.35 65.9,87.807 C66.539,87.264 66.855,86.314 66.855,84.962 C66.855,83.647 66.499,82.628 65.785,81.893 C65.073,81.163 64.055,80.793 62.743,80.793 L59.255,80.793 L59.255,73.248 L62.853,73.248 C64.174,73.248 65.137,72.887 65.758,72.152 C66.38,71.416 66.691,70.562 66.691,69.591 C66.691,68.54 66.439,67.776 65.954,67.306 C65.466,66.836 64.809,66.604 63.982,66.604 C63.721,66.604 63.447,66.644 63.164,66.718 C62.88,66.795 62.603,66.955 62.32,67.196 C62.041,67.438 61.775,67.804 61.529,68.297 C61.287,68.782 61.073,69.421 60.886,70.211 L50.294,68.297 C50.637,66.604 51.258,65.091 52.158,63.758 C53.057,62.424 54.145,61.309 55.422,60.41 C56.697,59.511 58.145,58.82 59.758,58.355 C61.369,57.884 63.082,57.647 64.886,57.647 C67.251,57.647 69.265,57.958 70.937,58.579 C72.608,59.2 73.979,60.032 75.047,61.082 C76.12,62.136 76.911,63.356 77.413,64.744 C77.92,66.133 78.176,67.577 78.176,69.078 C78.176,69.645 78.08,70.283 77.893,70.997 C77.706,71.714 77.413,72.426 77.021,73.138 C76.628,73.85 76.12,74.527 75.5,75.162 C74.878,75.801 74.139,76.307 73.275,76.687 z" fill="#727272"/>
  </g>
  <defs/>
</svg>
